<?xml version="1.0" encoding="utf-8"?>
<svg version="1.0" xmlns="http://www.w3.org/2000/svg" width="634.876926pt" height="388.840740pt" viewBox="0 0 634.876926 388.840740" preserveAspectRatio="xMidYMid meet" xmlns:bx="https://boxy-svg.com">
  <defs>
    <bx:export>
      <bx:file format="png" href="#object-4" path="Sin título 5.png" excluded="true"/>
    </bx:export>
  </defs>
  <g transform="translate(-400.842776,588.004930) scale(0.100000,-0.100000)" fill="#000000" stroke="none">
    <path d="M6785 5861 c-337 -89 -594 -341 -676 -666 -35 -134 -33 -315 4 -447 47 -171 135 -318 262 -437 102 -95 235 -173 350 -205 33 -10 68 -19 78 -22 16 -5 17 -60 18 -972 0 -1092 -4 -1029 76 -1085 60 -43 118 -47 180 -13 63 35 87 74 93 154 l5 64 208 -2 207 -1 0 121 0 120 -105 0 -106 0 3 103 3 102 75 0 c41 1 87 2 103 3 l27 2 0 110 0 110 -210 0 -210 0 0 311 c0 196 4 309 10 307 5 -1 161 -154 346 -338 l336 -335 211 -3 c115 -2 214 1 218 5 5 5 -144 161 -331 348 -187 186 -338 340 -337 342 1 1 155 155 342 343 l340 340 -220 0 -220 0 -340 -340 c-187 -187 -343 -340 -348 -340 -4 0 -6 120 -5 268 l3 267 75 23 c104 32 144 50 225 99 192 119 337 306 401 518 22 74 27 115 31 235 4 132 2 154 -21 244 -14 55 -39 127 -55 162 -119 253 -357 446 -628 508 -102 23 -324 21 -418 -3z m383 -366 c262 -83 423 -354 372 -626 -16 -85 -82 -208 -144 -272 -65 -66 -168 -129 -249 -152 -72 -21 -213 -21 -291 0 -85 22 -178 79 -249 149 -164 164 -203 417 -98 631 36 73 134 178 206 219 134 79 304 98 453 51z" style="fill: rgb(147, 51, 234);" id="object-4"/>
  </g>
</svg>