<?xml version="1.0" encoding="utf-8"?>
<svg version="1.0" xmlns="http://www.w3.org/2000/svg" width="634.876926pt" height="388.840740pt" viewBox="0 0 634.876926 388.840740" preserveAspectRatio="xMidYMid meet" xmlns:bx="https://boxy-svg.com">
  <defs>
    <bx:export>
      <bx:file format="png" href="#object-0" path="Sin título.png" excluded="true"/>
      <bx:file format="png" href="#object-1" path="Sin título 2.png" excluded="true"/>
      <bx:file format="png" href="#object-2" path="Sin título 3.png" excluded="true"/>
      <bx:file format="png" href="#object-3" path="Sin título 4.png" excluded="true"/>
      <bx:file format="png" href="#object-4" path="Sin título 5.png" excluded="true"/>
    </bx:export>
  </defs>
  <g transform="translate(-400.842776,588.004930) scale(0.100000,-0.100000)" fill="#000000" stroke="none">
    <path d="M6785 5861 c-337 -89 -594 -341 -676 -666 -35 -134 -33 -315 4 -447 47 -171 135 -318 262 -437 102 -95 235 -173 350 -205 33 -10 68 -19 78 -22 16 -5 17 -60 18 -972 0 -1092 -4 -1029 76 -1085 60 -43 118 -47 180 -13 63 35 87 74 93 154 l5 64 208 -2 207 -1 0 121 0 120 -105 0 -106 0 3 103 3 102 75 0 c41 1 87 2 103 3 l27 2 0 110 0 110 -210 0 -210 0 0 311 c0 196 4 309 10 307 5 -1 161 -154 346 -338 l336 -335 211 -3 c115 -2 214 1 218 5 5 5 -144 161 -331 348 -187 186 -338 340 -337 342 1 1 155 155 342 343 l340 340 -220 0 -220 0 -340 -340 c-187 -187 -343 -340 -348 -340 -4 0 -6 120 -5 268 l3 267 75 23 c104 32 144 50 225 99 192 119 337 306 401 518 22 74 27 115 31 235 4 132 2 154 -21 244 -14 55 -39 127 -55 162 -119 253 -357 446 -628 508 -102 23 -324 21 -418 -3z m383 -366 c262 -83 423 -354 372 -626 -16 -85 -82 -208 -144 -272 -65 -66 -168 -129 -249 -152 -72 -21 -213 -21 -291 0 -85 22 -178 79 -249 149 -164 164 -203 417 -98 631 36 73 134 178 206 219 134 79 304 98 453 51z" style="fill: rgb(147, 51, 234);" id="object-4"/>
    <path d="M4620 4231 c-249 -37 -445 -169 -539 -363 -121 -250 -89 -542 82 -749 65 -78 128 -126 228 -174 118 -55 186 -69 339 -70 99 0 152 5 200 18 243 67 422 233 492 457 19 62 23 97 23 205 0 117 -3 139 -29 219 -72 219 -260 388 -488 440 -83 19 -235 27 -308 17z m195 -252 c161 -30 298 -161 334 -320 84 -364 -274 -649 -614 -490 -225 105 -305 412 -165 631 58 90 147 152 252 175 79 17 119 18 193 4z" style="fill: rgb(147, 51, 234);" id="object-3"/>
    <path d="M6115 3885 c-5 -2 -29 -9 -52 -15 -24 -6 -72 -31 -108 -55 l-65 -45 0 55 0 55 -135 0 -135 0 0 -490 0 -490 140 0 140 0 0 273 c0 149 5 292 11 317 22 97 93 156 202 167 64 6 115 -8 159 -45 60 -51 63 -66 68 -407 l5 -310 28 1 c15 1 77 2 137 3 l111 1 -6 333 c-3 182 -10 351 -15 374 -41 183 -180 284 -388 282 -48 0 -91 -2 -97 -4z" style="fill: rgb(147, 51, 234);" id="object-2"/>
    <path d="M8580 3872 c-363 -95 -489 -575 -221 -842 101 -101 243 -153 416 -153 156 1 278 41 366 120 l40 36 -77 78 -77 77 -40 -29 c-109 -79 -295 -79 -404 1 -41 30 -98 123 -87 141 3 5 171 9 375 9 l369 0 0 88 c0 103 -16 167 -60 251 -61 114 -188 206 -319 231 -79 15 -207 11 -281 -8z m247 -203 c56 -21 102 -61 128 -112 46 -92 59 -87 -214 -87 -132 0 -242 4 -245 8 -10 17 18 83 53 124 47 55 100 78 183 78 37 0 79 -5 95 -11z" style="fill: rgb(147, 51, 234);" id="object-1"/>
    <path d="M9253 3868 c6 -14 294 -673 376 -860 37 -83 50 -124 45 -142 -10 -42 -72 -105 -114 -116 -46 -12 -118 1 -165 30 l-31 19 -48 -96 -48 -97 24 -18 c54 -42 129 -61 238 -62 94 -1 111 2 161 25 123 58 177 135 292 414 41 99 118 286 172 415 53 129 120 289 147 355 27 66 52 126 55 133 4 9 -26 12 -130 12 l-135 0 -113 -282 c-125 -314 -158 -392 -164 -387 -7 8 -256 603 -269 647 -7 21 -11 22 -153 22 -112 0 -144 -3 -140 -12z" style="fill: rgb(147, 51, 234);" id="object-0"/>
  </g>
</svg>